<svg width="32" height="32" viewBox="0 0 32 32" fill="none" xmlns="http://www.w3.org/2000/svg">
<path d="M11.5699 26C11.012 26 10.5466 25.5621 10.5181 24.9987C10.4896 24.4183 10.9367 23.9234 11.5186 23.8949C17.68 23.5892 21.6283 21.2594 23.1364 19.3573C23.5791 18.7985 24.0742 17.9546 23.919 17.1028C23.8278 16.5999 23.603 16.2555 23.214 16.0171C22.6231 15.6568 21.6648 15.5347 20.4407 15.6636C19.4209 15.7708 18.5995 16.0183 18.5915 16.0205C18.0702 16.1779 17.5135 15.9145 17.3081 15.4093C17.1028 14.9053 17.3161 14.3271 17.7998 14.0773C19.3547 13.2745 20.4065 12.2105 20.7624 11.0838C20.9507 10.4886 20.921 9.92864 20.6792 9.4645C20.2879 8.71755 19.3501 8.22947 18.1055 8.1257C14.1173 7.7927 10.1119 11.0884 7.89309 14.0135C7.54173 14.4765 6.88006 14.5677 6.4169 14.2165C5.95373 13.8652 5.86247 13.2038 6.21384 12.7408C10.2762 7.38673 15.1121 5.76169 18.2801 6.0274C20.2582 6.19275 21.8131 7.09023 22.5455 8.48948C23.0463 9.4474 23.1273 10.5935 22.7714 11.719C22.5729 12.3474 22.2466 12.9529 21.8063 13.5208C22.6767 13.5721 23.562 13.766 24.3058 14.2176C25.2093 14.7673 25.7922 15.634 25.9907 16.7253C26.2257 18.0139 25.8093 19.3778 24.7872 20.6664C22.4041 23.6702 17.3606 25.7138 11.6224 25.9989C11.6041 25.9989 11.587 26 11.5687 26H11.5699Z" fill="url(#paint0_linear_125_27)"/>
<path fill-rule="evenodd" clip-rule="evenodd" d="M15.9577 11.9266C15.5082 11.7738 15.0188 12.0064 14.8511 12.4512L12.3163 19.1999C12.2866 19.2797 12.3288 19.3676 12.4087 19.3949L14.2374 20.0141C14.3184 20.0415 14.4051 19.997 14.429 19.9149L16.5167 13.0156C16.6547 12.5618 16.406 12.0794 15.9566 11.9277L15.9577 11.9266ZM14.2294 20.4543L12.1474 19.7496C12.071 19.7234 11.9866 19.7633 11.9581 19.8385L11.5816 20.8409C11.5405 20.9493 11.6329 21.0587 11.747 21.0416C12.1018 20.988 12.4737 21.0154 12.8331 21.1374C12.8421 21.1402 12.8511 21.1434 12.8599 21.1465L12.8764 21.1522C13.2221 21.2765 13.5164 21.4795 13.7514 21.7373C13.8313 21.8251 13.9739 21.7966 14.0081 21.6825L14.3241 20.6391C14.348 20.5615 14.3047 20.4794 14.2283 20.4532L14.2294 20.4543ZM10.3313 22.4523C10.7671 21.5844 11.812 21.1694 12.7292 21.4875V21.4864C13.748 21.8399 14.1895 22.921 13.9476 23.9747C13.7024 25.0398 12.4098 26.3307 10.1488 25.9076C10.0358 25.886 9.98563 25.7537 10.0586 25.6647C10.1625 25.537 10.2914 25.3523 10.3724 25.1333C10.4864 24.8265 10.4522 24.4879 10.3108 24.1936C10.2993 24.1708 10.2891 24.1469 10.2788 24.123L10.2788 24.1229C10.0586 23.612 10.0518 23.0076 10.3313 22.4523Z" fill="url(#paint1_linear_125_27)"/>
<defs>
<linearGradient id="paint0_linear_125_27" x1="22.4635" y1="25.3486" x2="22.6609" y2="12.2148" gradientUnits="userSpaceOnUse">
<stop stop-color="#E85196"/>
<stop offset="0.14" stop-color="#EC707C"/>
<stop offset="0.35" stop-color="#F1975C"/>
<stop offset="0.51" stop-color="#F4B049"/>
<stop offset="0.61" stop-color="#F6B942"/>
</linearGradient>
<linearGradient id="paint1_linear_125_27" x1="10.0416" y1="10.3315" x2="10.3876" y2="24.1529" gradientUnits="userSpaceOnUse">
<stop stop-color="#E85196"/>
<stop offset="0.14" stop-color="#EC707C"/>
<stop offset="0.35" stop-color="#F1975C"/>
<stop offset="0.51" stop-color="#F4B049"/>
<stop offset="0.61" stop-color="#F6B942"/>
</linearGradient>
</defs>
</svg>
